<svg width="39" height="45" viewBox="0 0 39 45" fill="none" xmlns="http://www.w3.org/2000/svg">
<g clip-path="url(#clip0)" filter="url(#filter0_dd)">
<path d="M26.9011 14.281C25.3839 11.6627 22.689 10.063 19.6921 10.0019C19.5642 9.99925 19.4355 9.99925 19.3075 10.0019C16.3107 10.063 13.6158 11.6627 12.0985 14.281C10.5476 16.9574 10.5052 20.1722 11.985 22.8808L18.1843 34.2278C18.1871 34.2328 18.1899 34.2379 18.1928 34.2429C18.4655 34.7169 18.9542 34.9999 19.4999 34.9999C20.0456 34.9999 20.5342 34.7169 20.8069 34.2429C20.8098 34.2379 20.8126 34.2328 20.8154 34.2278L27.0148 22.8808C28.4944 20.1722 28.452 16.9574 26.9011 14.281V14.281ZM19.4998 21.3281C17.5613 21.3281 15.9842 19.751 15.9842 17.8124C15.9842 15.8739 17.5613 14.2968 19.4998 14.2968C21.4383 14.2968 23.0154 15.8739 23.0154 17.8124C23.0154 19.751 21.4384 21.3281 19.4998 21.3281Z" fill="white"/>
</g>
<defs>
<filter id="filter0_dd" x="-3" y="0" width="45" height="45" filterUnits="userSpaceOnUse" color-interpolation-filters="sRGB">
<feFlood flood-opacity="0" result="BackgroundImageFix"/>
<feColorMatrix in="SourceAlpha" type="matrix" values="0 0 0 0 0 0 0 0 0 0 0 0 0 0 0 0 0 0 127 0"/>
<feOffset/>
<feGaussianBlur stdDeviation="5"/>
<feColorMatrix type="matrix" values="0 0 0 0 0 0 0 0 0 0 0 0 0 0 0 0 0 0 1 0"/>
<feBlend mode="normal" in2="BackgroundImageFix" result="effect1_dropShadow"/>
<feColorMatrix in="SourceAlpha" type="matrix" values="0 0 0 0 0 0 0 0 0 0 0 0 0 0 0 0 0 0 127 0"/>
<feOffset/>
<feGaussianBlur stdDeviation="1"/>
<feColorMatrix type="matrix" values="0 0 0 0 0 0 0 0 0 0 0 0 0 0 0 0 0 0 1 0"/>
<feBlend mode="normal" in2="effect1_dropShadow" result="effect2_dropShadow"/>
<feBlend mode="normal" in="SourceGraphic" in2="effect2_dropShadow" result="shape"/>
</filter>
<clipPath id="clip0">
<rect width="25" height="25" fill="white" transform="translate(7 10)"/>
</clipPath>
</defs>
</svg>
