<svg width="45" height="45" viewBox="0 0 45 45" fill="none" xmlns="http://www.w3.org/2000/svg">
<g filter="url(#filter0_dd)">
<path d="M28.2327 10H16.7673C13.0357 10 10 13.0357 10 16.7673V28.2329C10 31.9642 13.0357 35 16.7673 35H28.2329C31.9642 35 35 31.9642 35 28.2329V16.7673C35 13.0357 31.9642 10 28.2327 10V10ZM22.5 29.3357C18.7307 29.3357 15.6642 26.2693 15.6642 22.5C15.6642 18.7307 18.7307 15.6642 22.5 15.6642C26.2693 15.6642 29.3357 18.7307 29.3357 22.5C29.3357 26.2693 26.2693 29.3357 22.5 29.3357V29.3357ZM29.4992 17.2763C28.3853 17.2763 27.4793 16.3703 27.4793 15.2565C27.4793 14.1426 28.3853 13.2364 29.4992 13.2364C30.6131 13.2364 31.5192 14.1426 31.5192 15.2565C31.5192 16.3703 30.6131 17.2763 29.4992 17.2763Z" fill="white"/>
<path d="M22.5 17.1299C19.5391 17.1299 17.1299 19.5389 17.1299 22.5C17.1299 25.461 19.5391 27.8701 22.5 27.8701C25.4612 27.8701 27.8701 25.461 27.8701 22.5C27.8701 19.5389 25.4612 17.1299 22.5 17.1299Z" fill="white"/>
<path d="M29.4993 14.7022C29.1937 14.7022 28.945 14.9509 28.945 15.2565C28.945 15.562 29.1937 15.8107 29.4993 15.8107C29.805 15.8107 30.0537 15.5622 30.0537 15.2565C30.0537 14.9507 29.805 14.7022 29.4993 14.7022Z" fill="white"/>
</g>
<defs>
<filter id="filter0_dd" x="0" y="0" width="45" height="45" filterUnits="userSpaceOnUse" color-interpolation-filters="sRGB">
<feFlood flood-opacity="0" result="BackgroundImageFix"/>
<feColorMatrix in="SourceAlpha" type="matrix" values="0 0 0 0 0 0 0 0 0 0 0 0 0 0 0 0 0 0 127 0"/>
<feOffset/>
<feGaussianBlur stdDeviation="5"/>
<feColorMatrix type="matrix" values="0 0 0 0 0 0 0 0 0 0 0 0 0 0 0 0 0 0 1 0"/>
<feBlend mode="normal" in2="BackgroundImageFix" result="effect1_dropShadow"/>
<feColorMatrix in="SourceAlpha" type="matrix" values="0 0 0 0 0 0 0 0 0 0 0 0 0 0 0 0 0 0 127 0"/>
<feOffset/>
<feGaussianBlur stdDeviation="1"/>
<feColorMatrix type="matrix" values="0 0 0 0 0 0 0 0 0 0 0 0 0 0 0 0 0 0 1 0"/>
<feBlend mode="normal" in2="effect1_dropShadow" result="effect2_dropShadow"/>
<feBlend mode="normal" in="SourceGraphic" in2="effect2_dropShadow" result="shape"/>
</filter>
</defs>
</svg>
