<svg width="45" height="45" viewBox="0 0 45 45" fill="none" xmlns="http://www.w3.org/2000/svg">
<g clip-path="url(#clip0)" filter="url(#filter0_dd)">
<path d="M32.994 26.4096C31.4634 26.4096 29.9605 26.1702 28.5364 25.6996C27.8385 25.4616 26.9807 25.6799 26.5548 26.1174L23.7437 28.2394C20.4838 26.4992 18.4757 24.4918 16.7593 21.2563L18.8189 18.5186C19.354 17.9842 19.5459 17.2036 19.316 16.4712C18.8433 15.0395 18.6032 13.5374 18.6032 12.0061C18.6033 10.8999 17.7033 10 16.5972 10H12.0061C10.8999 10 10 10.8999 10 12.0061C10 24.6851 20.315 35 32.994 35C34.1001 35 35.0001 34.1001 35.0001 32.9939V28.4156C35 27.3096 34.1001 26.4096 32.994 26.4096Z" fill="white"/>
</g>
<defs>
<filter id="filter0_dd" x="0" y="0" width="45" height="45" filterUnits="userSpaceOnUse" color-interpolation-filters="sRGB">
<feFlood flood-opacity="0" result="BackgroundImageFix"/>
<feColorMatrix in="SourceAlpha" type="matrix" values="0 0 0 0 0 0 0 0 0 0 0 0 0 0 0 0 0 0 127 0"/>
<feOffset/>
<feGaussianBlur stdDeviation="5"/>
<feColorMatrix type="matrix" values="0 0 0 0 0 0 0 0 0 0 0 0 0 0 0 0 0 0 1 0"/>
<feBlend mode="normal" in2="BackgroundImageFix" result="effect1_dropShadow"/>
<feColorMatrix in="SourceAlpha" type="matrix" values="0 0 0 0 0 0 0 0 0 0 0 0 0 0 0 0 0 0 127 0"/>
<feOffset/>
<feGaussianBlur stdDeviation="1"/>
<feColorMatrix type="matrix" values="0 0 0 0 0 0 0 0 0 0 0 0 0 0 0 0 0 0 1 0"/>
<feBlend mode="normal" in2="effect1_dropShadow" result="effect2_dropShadow"/>
<feBlend mode="normal" in="SourceGraphic" in2="effect2_dropShadow" result="shape"/>
</filter>
<clipPath id="clip0">
<rect width="25" height="25" fill="white" transform="translate(10 10)"/>
</clipPath>
</defs>
</svg>
