<svg width="85" height="39" viewBox="0 0 85 39" fill="none" xmlns="http://www.w3.org/2000/svg">
<g filter="url(#filter0_dd)">
<path d="M10.1198 28V10.96H13.4318V25.096H22.1198V28H10.1198ZM31.0324 28.12C29.7844 28.12 28.6484 27.88 27.6244 27.4C26.6164 26.92 25.7444 26.272 25.0084 25.456C24.2884 24.624 23.7284 23.696 23.3284 22.672C22.9284 21.632 22.7284 20.568 22.7284 19.48C22.7284 18.344 22.9364 17.264 23.3524 16.24C23.7684 15.2 24.3524 14.28 25.1044 13.48C25.8564 12.664 26.7364 12.024 27.7444 11.56C28.7684 11.08 29.8884 10.84 31.1044 10.84C32.3364 10.84 33.4564 11.088 34.4644 11.584C35.4884 12.08 36.3604 12.744 37.0804 13.576C37.8164 14.408 38.3764 15.344 38.7604 16.384C39.1604 17.408 39.3604 18.456 39.3604 19.528C39.3604 20.648 39.1524 21.728 38.7364 22.768C38.3204 23.792 37.7364 24.712 36.9844 25.528C36.2484 26.328 35.3684 26.96 34.3444 27.424C33.3364 27.888 32.2324 28.12 31.0324 28.12ZM26.0884 19.48C26.0884 20.472 26.2804 21.4 26.6644 22.264C27.0644 23.128 27.6324 23.832 28.3684 24.376C29.1204 24.92 30.0164 25.192 31.0564 25.192C32.1284 25.192 33.0324 24.912 33.7684 24.352C34.5044 23.792 35.0644 23.072 35.4484 22.192C35.8324 21.312 36.0244 20.408 36.0244 19.48C36.0244 18.488 35.8244 17.56 35.4244 16.696C35.0244 15.832 34.4484 15.136 33.6964 14.608C32.9604 14.064 32.0804 13.792 31.0564 13.792C29.9844 13.792 29.0804 14.072 28.3444 14.632C27.6084 15.192 27.0484 15.912 26.6644 16.792C26.2804 17.656 26.0884 18.552 26.0884 19.48ZM48.981 28.12C47.861 28.12 46.813 27.896 45.837 27.448C44.861 27 43.997 26.384 43.245 25.6C42.509 24.8 41.933 23.872 41.517 22.816C41.101 21.76 40.893 20.616 40.893 19.384C40.893 18.216 41.101 17.12 41.517 16.096C41.933 15.056 42.517 14.144 43.269 13.36C44.021 12.576 44.901 11.96 45.909 11.512C46.917 11.064 48.013 10.84 49.197 10.84C50.781 10.84 52.149 11.184 53.301 11.872C54.453 12.544 55.317 13.44 55.893 14.56L53.421 16.384C52.989 15.552 52.381 14.912 51.597 14.464C50.829 14 49.989 13.768 49.077 13.768C48.117 13.768 47.269 14.032 46.533 14.56C45.813 15.088 45.245 15.784 44.829 16.648C44.429 17.512 44.229 18.456 44.229 19.48C44.229 20.552 44.445 21.52 44.877 22.384C45.309 23.248 45.901 23.936 46.653 24.448C47.421 24.944 48.293 25.192 49.269 25.192C50.917 25.192 52.405 24.416 53.733 22.864V21.664H50.301V19.24H56.469V28H53.733V26.08C52.357 27.44 50.773 28.12 48.981 28.12ZM66.5636 28.12C65.3156 28.12 64.1796 27.88 63.1556 27.4C62.1476 26.92 61.2756 26.272 60.5396 25.456C59.8196 24.624 59.2596 23.696 58.8596 22.672C58.4596 21.632 58.2596 20.568 58.2596 19.48C58.2596 18.344 58.4676 17.264 58.8836 16.24C59.2996 15.2 59.8836 14.28 60.6356 13.48C61.3876 12.664 62.2676 12.024 63.2756 11.56C64.2996 11.08 65.4196 10.84 66.6356 10.84C67.8676 10.84 68.9876 11.088 69.9956 11.584C71.0196 12.08 71.8916 12.744 72.6116 13.576C73.3476 14.408 73.9076 15.344 74.2916 16.384C74.6916 17.408 74.8916 18.456 74.8916 19.528C74.8916 20.648 74.6836 21.728 74.2676 22.768C73.8516 23.792 73.2676 24.712 72.5156 25.528C71.7796 26.328 70.8996 26.96 69.8756 27.424C68.8676 27.888 67.7636 28.12 66.5636 28.12ZM61.6196 19.48C61.6196 20.472 61.8116 21.4 62.1956 22.264C62.5956 23.128 63.1636 23.832 63.8996 24.376C64.6516 24.92 65.5476 25.192 66.5876 25.192C67.6596 25.192 68.5636 24.912 69.2996 24.352C70.0356 23.792 70.5956 23.072 70.9796 22.192C71.3636 21.312 71.5556 20.408 71.5556 19.48C71.5556 18.488 71.3556 17.56 70.9556 16.696C70.5556 15.832 69.9796 15.136 69.2276 14.608C68.4916 14.064 67.6116 13.792 66.5876 13.792C65.5156 13.792 64.6116 14.072 63.8756 14.632C63.1396 15.192 62.5796 15.912 62.1956 16.792C61.8116 17.656 61.6196 18.552 61.6196 19.48Z" fill="white"/>
</g>
<defs>
<filter id="filter0_dd" x="0.119751" y="0.839996" width="84.7719" height="37.28" filterUnits="userSpaceOnUse" color-interpolation-filters="sRGB">
<feFlood flood-opacity="0" result="BackgroundImageFix"/>
<feColorMatrix in="SourceAlpha" type="matrix" values="0 0 0 0 0 0 0 0 0 0 0 0 0 0 0 0 0 0 127 0"/>
<feOffset/>
<feGaussianBlur stdDeviation="5"/>
<feColorMatrix type="matrix" values="0 0 0 0 0 0 0 0 0 0 0 0 0 0 0 0 0 0 1 0"/>
<feBlend mode="normal" in2="BackgroundImageFix" result="effect1_dropShadow"/>
<feColorMatrix in="SourceAlpha" type="matrix" values="0 0 0 0 0 0 0 0 0 0 0 0 0 0 0 0 0 0 127 0"/>
<feOffset/>
<feGaussianBlur stdDeviation="1"/>
<feColorMatrix type="matrix" values="0 0 0 0 0 0 0 0 0 0 0 0 0 0 0 0 0 0 1 0"/>
<feBlend mode="normal" in2="effect1_dropShadow" result="effect2_dropShadow"/>
<feBlend mode="normal" in="SourceGraphic" in2="effect2_dropShadow" result="shape"/>
</filter>
</defs>
</svg>
