<svg width="30" height="30" viewBox="0 0 30 30" fill="none" xmlns="http://www.w3.org/2000/svg">
<path d="M0 3.33333C0 1.49238 1.49238 0 3.33333 0H10C11.8409 0 13.3333 1.49238 13.3333 3.33333V10C13.3333 11.8409 11.8409 13.3333 10 13.3333H3.33333C1.49238 13.3333 0 11.8409 0 10V3.33333Z" fill="white"/>
<path d="M16.6667 3.33333C16.6667 1.49238 18.1591 0 20 0H26.6667C28.5076 0 30 1.49238 30 3.33333V10C30 11.8409 28.5076 13.3333 26.6667 13.3333H20C18.1591 13.3333 16.6667 11.8409 16.6667 10V3.33333Z" fill="white"/>
<path d="M0 20C0 18.1591 1.49238 16.6667 3.33333 16.6667H10C11.8409 16.6667 13.3333 18.1591 13.3333 20V26.6667C13.3333 28.5076 11.8409 30 10 30H3.33333C1.49238 30 0 28.5076 0 26.6667V20Z" fill="white"/>
<path d="M16.6667 20C16.6667 18.1591 18.1591 16.6667 20 16.6667H26.6667C28.5076 16.6667 30 18.1591 30 20V26.6667C30 28.5076 28.5076 30 26.6667 30H20C18.1591 30 16.6667 28.5076 16.6667 26.6667V20Z" fill="white"/>
</svg>
